<svg width="161" height="120" viewBox="0 0 161 120" fill="none" xmlns="http://www.w3.org/2000/svg">
<g clip-path="url(#clip0_4_20)">
<path d="M48.5 89.5V100.094H-0.671875L-1.32812 91.8906L27.125 46.75H37.8594L26.2344 66.2031L12.0781 89.5H48.5ZM40.7656 46.75V115H27.2656V46.75H40.7656Z" fill="white"/>
<path d="M160.5 89.5V100.094H111.328L110.672 91.8906L139.125 46.75H149.859L138.234 66.2031L124.078 89.5H160.5ZM152.766 46.75V115H139.266V46.75H152.766Z" fill="white"/>
<path d="M104.625 74.875V86.6875C104.625 91.8125 104.078 96.2344 102.984 99.9531C101.891 103.641 100.312 106.672 98.25 109.047C96.2188 111.391 93.7969 113.125 90.9844 114.25C88.1719 115.375 85.0469 115.938 81.6094 115.938C78.8594 115.938 76.2969 115.594 73.9219 114.906C71.5469 114.188 69.4062 113.078 67.5 111.578C65.625 110.078 64 108.188 62.625 105.906C61.2812 103.594 60.25 100.844 59.5312 97.6562C58.8125 94.4688 58.4531 90.8125 58.4531 86.6875V74.875C58.4531 69.75 59 65.3594 60.0938 61.7031C61.2188 58.0156 62.7969 55 64.8281 52.6562C66.8906 50.3125 69.3281 48.5938 72.1406 47.5C74.9531 46.375 78.0781 45.8125 81.5156 45.8125C84.2656 45.8125 86.8125 46.1719 89.1562 46.8906C91.5312 47.5781 93.6719 48.6562 95.5781 50.125C97.4844 51.5938 99.1094 53.4844 100.453 55.7969C101.797 58.0781 102.828 60.8125 103.547 64C104.266 67.1562 104.625 70.7812 104.625 74.875ZM91.0781 88.4688V73.0469C91.0781 70.5781 90.9375 68.4219 90.6562 66.5781C90.4062 64.7344 90.0156 63.1719 89.4844 61.8906C88.9531 60.5781 88.2969 59.5156 87.5156 58.7031C86.7344 57.8906 85.8438 57.2969 84.8438 56.9219C83.8438 56.5469 82.7344 56.3594 81.5156 56.3594C79.9844 56.3594 78.625 56.6562 77.4375 57.25C76.2812 57.8438 75.2969 58.7969 74.4844 60.1094C73.6719 61.3906 73.0469 63.1094 72.6094 65.2656C72.2031 67.3906 72 69.9844 72 73.0469V88.4688C72 90.9375 72.125 93.1094 72.375 94.9844C72.6562 96.8594 73.0625 98.4688 73.5938 99.8125C74.1562 101.125 74.8125 102.203 75.5625 103.047C76.3438 103.859 77.2344 104.453 78.2344 104.828C79.2656 105.203 80.3906 105.391 81.6094 105.391C83.1094 105.391 84.4375 105.094 85.5938 104.5C86.7812 103.875 87.7812 102.906 88.5938 101.594C89.4375 100.25 90.0625 98.5 90.4688 96.3438C90.875 94.1875 91.0781 91.5625 91.0781 88.4688Z" fill="white"/>
<g filter="url(#filter0_d_4_20)">
<path d="M49.6084 40.4578C53.2518 40.8194 56.8269 40.3077 60.4157 39.7756C63.1978 39.3595 65.8228 38.5067 68.1196 36.9445C69.9037 35.7301 71.4554 34.1815 73.1439 32.8308C76.1926 30.4021 79.3234 28.0826 83.1377 26.9843C84.5459 26.575 86.0019 26.268 87.4511 26.1247C88.9823 25.9746 90.3289 25.4016 91.6687 24.7398C93.904 23.6278 96.153 22.4885 97.8688 20.6602C99.5777 18.8456 101.157 16.8876 102.681 14.9024C104.561 12.4465 106.297 9.88141 108.157 7.41183C109.107 6.14975 110.139 4.9286 111.561 4.15771C112.237 3.78932 112.935 3.59148 113.646 3.31178C113.789 3.2572 113.933 3.06619 114.076 3.01843C114.309 2.93657 114.78 3.14123 114.972 3.35953C115.232 3.6597 115.095 3.87801 115.259 4.23275C115.327 4.37601 116.168 4.79216 115.97 5.17419C115.731 5.14008 115.464 5.01729 115.389 5.09233C115.348 5.18102 115.553 5.35157 115.71 5.60398C115.437 5.84276 115.225 5.57669 115.067 5.50847C114.117 5.08551 113.249 5.24924 112.477 5.90415C110.966 7.19352 109.701 8.70119 108.731 10.4272C107.268 13.0195 105.88 15.6529 104.424 18.2589C102.913 20.9741 100.829 23.2253 98.5797 25.347C97.4313 26.4317 96.235 27.4686 95.155 28.6079C94.1843 29.6312 93.8699 31.0093 93.3982 32.3055C92.9539 33.5266 92.3797 34.7 91.8875 35.9007C91.7713 36.1804 91.6687 36.4942 91.6824 36.7876C91.8328 39.9189 91.9832 43.057 92.1951 46.1883C92.2361 46.7682 92.4685 47.3549 92.7283 47.887C92.742 47.9211 92.7556 47.9484 92.7693 47.9825C93.0222 48.0576 93.3572 48.194 93.5622 48.4601C93.904 48.8899 93.2956 48.5692 92.6394 48.5829C92.5642 48.6033 92.4822 48.617 92.3728 48.617C91.7439 48.6443 91.1014 48.6443 90.4725 48.5624C90.2879 48.5351 90.035 48.1872 90.0145 47.9689C89.8778 46.2838 89.8026 44.592 89.6932 42.9069C89.659 42.3816 89.577 41.8563 89.3924 41.331C88.8934 43.5687 87.4442 45.6221 88.039 48.1053C88.2919 48.194 88.6337 48.3577 88.8319 48.6511C89.1327 49.0877 88.5927 48.7602 87.9569 48.7125C87.1982 48.7193 86.4941 48.7398 85.8037 48.6784C85.6806 48.6647 85.4824 48.1804 85.5166 47.9416C85.7558 46.1269 86.0498 44.3259 86.3027 42.5181C86.4326 41.6039 86.5146 40.6829 86.624 39.7756C83.5342 40.1918 80.4855 40.5943 77.3684 41.0172C77.676 43.3708 77.2932 45.9564 78.5714 48.3032C78.7218 48.3919 78.8654 48.5078 78.9679 48.6579C79.255 49.0809 78.7628 48.7944 78.1613 48.7261C77.5666 48.733 76.965 48.7534 76.3772 48.7125C75.926 48.6784 75.7551 48.3305 75.7688 47.8802C75.844 45.7517 75.1946 43.7392 74.7503 41.6994C74.7366 41.638 74.6887 41.5903 74.593 41.4197C74.4905 41.9518 74.4085 42.3885 74.3196 42.8182C74.1009 43.8825 73.93 44.9535 73.6429 45.9973C73.4241 46.7887 73.4105 47.5255 73.8616 48.3577C74.0257 48.4533 74.1829 48.5692 74.2991 48.7398C74.6409 49.2378 73.8821 48.733 73.1439 48.8012C73.0482 48.808 72.9798 48.8012 72.932 48.7875C72.5423 48.7875 72.1732 48.7875 71.8041 48.7875C71.2982 48.7807 71.1136 48.4601 71.1683 48.0235C71.2709 47.1298 71.3324 46.2224 71.558 45.356C71.9818 43.7051 72.1185 42.0405 72.057 40.1918C64.3531 41.0991 56.6971 42.0746 49.0137 40.8057C49.0068 40.7102 49.0068 40.6147 49 40.5192C49.2051 40.4783 49.4101 40.4374 49.6084 40.4578Z" fill="white"/>
</g>
</g>
<defs>
<filter id="filter0_d_4_20" x="48" y="3" width="69" height="47.9619" filterUnits="userSpaceOnUse" color-interpolation-filters="sRGB">
<feFlood flood-opacity="0" result="BackgroundImageFix"/>
<feColorMatrix in="SourceAlpha" type="matrix" values="0 0 0 0 0 0 0 0 0 0 0 0 0 0 0 0 0 0 127 0" result="hardAlpha"/>
<feOffset dy="1"/>
<feGaussianBlur stdDeviation="0.5"/>
<feComposite in2="hardAlpha" operator="out"/>
<feColorMatrix type="matrix" values="0 0 0 0 0 0 0 0 0 0 0 0 0 0 0 0 0 0 0.12 0"/>
<feBlend mode="normal" in2="BackgroundImageFix" result="effect1_dropShadow_4_20"/>
<feBlend mode="normal" in="SourceGraphic" in2="effect1_dropShadow_4_20" result="shape"/>
</filter>
<clipPath id="clip0_4_20">
<rect width="161" height="120" fill="white"/>
</clipPath>
</defs>
</svg>
