<?xml version="1.0" encoding="utf-8"?>
<!-- Generator: Adobe Illustrator 24.1.1, SVG Export Plug-In . SVG Version: 6.00 Build 0)  -->
<svg version="1.1" id="Layer_1" xmlns="http://www.w3.org/2000/svg" xmlns:xlink="http://www.w3.org/1999/xlink" x="0px" y="0px"
	 viewBox="0 0 512 512" style="enable-background:new 0 0 512 512;" xml:space="preserve">
<g>
	<path d="M256,488.7V512c141.4,0,256-114.6,256-256C512,114.6,397.4,0,256,0C114.6,0,0,114.6,0,256c0,141.4,114.6,256,256,256V488.7
		v-23.3c-57.9,0-110.1-23.4-148.1-61.3C70,366.1,46.6,313.9,46.5,256c0-57.9,23.4-110.1,61.3-148.1c38-37.9,90.2-61.3,148.1-61.3
		c57.9,0,110.1,23.4,148.1,61.3c37.9,38,61.3,90.2,61.3,148.1c0,57.9-23.4,110.1-61.3,148.1c-38,37.9-90.2,61.3-148.1,61.3V488.7z
		 M279.3,325.8v-23.3c0-5.8,0-10.4,0.3-13.6c0.4-5,1-5.6,1.3-6.1c0.3-0.5,2-2.6,8.8-6c11.6-5.9,25.5-12.4,38-24.7
		c6.2-6.2,11.8-14,15.6-23.2c3.8-9.3,5.8-19.8,5.8-31c-0.2-19.2-8.6-38.4-24.3-54.3c-15.6-15.8-39.7-27.3-68.8-27.2
		c-28-0.2-52.8,9.3-69.3,27.1c-16.6,17.7-23.8,41.5-23.8,66h46.5c0-15.9,4.5-27,11.2-34.1c6.8-7,16.9-12.2,35.4-12.4
		c17.4,0.1,28.3,6.1,35.9,13.5c7.6,7.4,10.9,17.3,10.6,21.4c0,6.2-1,10.2-2.2,13.3c-1.9,4.6-4.7,7.9-10,11.9
		c-5.2,3.9-12.7,7.8-21.5,12.2c-7.2,3.6-13.5,7.6-19,12.8c-8.4,7.7-13.7,18.6-15.4,28.1c-1.9,9.6-1.6,17.8-1.7,26.5v23.3H279.3z
		 M232.7,349.1v46.5h46.5v-46.5H232.7z"/>
</g>
</svg>
