<svg xmlns="http://www.w3.org/2000/svg" viewBox="0 0 22 22"><rect width="22" height="22" fill="RGB(var(--white))" rx="11"/><path fill="RGB(var(--green))" d="M2 11a9 9 0 1118 0 9 9 0 01-18 0z"/><path fill="RGB(var(--white))" d="M16.25 11.5a.75.75 0 00-1.5 0v1a1.25 1.25 0 01-1.25 1.25H9.25V12.5a.75.75 0 00-1.28-.53l-2 2a.747.747 0 00.002 1.063L7.97 17.03a.75.75 0 001.28-.53v-1.25h4.25a2.75 2.75 0 002.75-2.75v-1z"/><path fill="RGB(var(--white))" d="M5.75 10.5a.75.75 0 001.5 0v-1A1.25 1.25 0 018.5 8.25h4.25V9.5a.75.75 0 001.28.53l2-2a.747.747 0 00-.002-1.063L14.03 4.97a.75.75 0 00-1.28.53v1.25H8.5A2.75 2.75 0 005.75 9.5v1z"/></svg>