<?xml version="1.0" encoding="UTF-8" standalone="no"?>
<!-- Created with Inkscape (http://www.inkscape.org/) -->

<svg
   width="100mm"
   height="100mm"
   viewBox="0 0 100 100"
   version="1.1"
   id="svg5"
   sodipodi:docname="food.beverages.rectangle.stack.fill.svg"
   inkscape:version="1.1.1 (c3084ef, 2021-09-22)"
   xmlns:inkscape="http://www.inkscape.org/namespaces/inkscape"
   xmlns:sodipodi="http://sodipodi.sourceforge.net/DTD/sodipodi-0.dtd"
   xmlns="http://www.w3.org/2000/svg"
   xmlns:svg="http://www.w3.org/2000/svg">
  <sodipodi:namedview
     id="namedview7"
     pagecolor="#ffffff"
     bordercolor="#666666"
     borderopacity="1.0"
     inkscape:pageshadow="2"
     inkscape:pageopacity="0.0"
     inkscape:pagecheckerboard="0"
     inkscape:document-units="mm"
     showgrid="false"
     width="100mm"
     inkscape:zoom="0.56632496"
     inkscape:cx="164.21667"
     inkscape:cy="214.54114"
     inkscape:window-width="1323"
     inkscape:window-height="737"
     inkscape:window-x="0"
     inkscape:window-y="25"
     inkscape:window-maximized="0"
     inkscape:current-layer="layer1" />
  <defs
     id="defs2" />
  <g
     inkscape:label="Calque 1"
     inkscape:groupmode="layer"
     id="layer1">
    <g
       id="Regular-S"
       transform="matrix(0.94045981,0,0,1.0175663,-4.6689549,86.717474)"
       style="fill:#787c7e;fill-opacity:1">
      <path
         d="m 77.1484,9.91211 h 17.8223 q 4.0039,0 6.0303,-2.09961 2.026,-2.09961 2.466,-6.44531 l 4.004,-41.69919 q 0.195,-1.7578 -0.757,-2.8321 -0.952,-1.0742 -2.661,-1.0742 H 68.0664 q -1.709,0 -2.6367,1.0987 -0.9277,1.0986 -0.7324,2.8076 l 4.0039,41.69919 q 0.3906,4.3457 2.417,6.44531 2.0263,2.09961 6.0302,2.09961 z m 0.293,-6.83594 q -1.8555,0 -2.0508,-1.95312 L 71.7285,-37.4023 H 100.439 L 96.7773,1.12305 Q 96.5332,3.07617 94.7266,3.07617 Z M 83.2031,-42.041 h 5.9571 l 0.2441,-3.6133 q 0.1953,-2.6367 2.0019,-3.9062 l 12.7928,-9.1797 q 1.221,-0.8789 1.294,-2.0508 0.073,-1.1719 -0.61,-2.124 -0.684,-0.9522 -1.856,-1.2207 -1.172,-0.2686 -2.49,0.6591 l -12.3046,8.8868 q -2.2461,1.6601 -3.3447,3.6377 -1.0986,1.9775 -1.3428,4.9072 z M 21.8262,2.92969 H 63.1348 Q 63.0859,2.63672 63.0615,2.41699 63.0371,2.19727 63.0371,1.9043 L 62.4512,-4.15039 H 21.9238 q -5.1269,0 -5.1269,-5.12695 V -49.1211 q 0,-0.8301 0.0732,-1.2695 0.0733,-0.4395 0.4151,-0.8301 l 7.5683,-10.0098 q 0.4395,-0.6347 0.6348,-1.2451 0.1953,-0.6103 0.1953,-1.4404 v -6.9824 q 0,-2.4903 2.2949,-2.4903 h 32.3242 q 2.295,0 2.295,2.4903 v 6.9824 q 0,0.8301 0.1953,1.4404 0.1953,0.6104 0.6347,1.2451 l 7.6172,10.0098 q 0.1953,0.293 0.293,0.5615 0.0976,0.2686 0.0976,0.708 h 7.0801 q 0,-1.6113 -0.3418,-2.5879 -0.3418,-0.9765 -1.123,-2.0507 l -7.4219,-9.8145 v -7.4707 q 0,-4.1504 -2.3926,-6.3721 -2.3925,-2.2217 -6.8847,-2.2217 H 27.9297 q -4.4434,0 -6.8604,2.2217 -2.417,2.2217 -2.417,6.3721 v 7.4707 l -7.373,9.8145 q -0.8301,1.123 -1.1719,2.1972 -0.34178,1.0742 -0.34178,2.8809 v 40.57615 q 0,5.95703 3.00298,8.9111359 Q 15.7715,2.92969 21.8262,2.92969 Z M 33.9844,-62.0605 h 20.3125 q 1.123,0 1.9531,-0.8301 0.8301,-0.8301 0.8301,-2.002 0,-1.123 -0.8301,-1.9775 -0.8301,-0.8545 -1.9531,-0.8545 H 33.9844 q -1.1231,0 -1.9532,0.8545 -0.83,0.8545 -0.83,1.9775 0,1.1719 0.83,2.002 0.8301,0.8301 1.9532,0.8301 z"
         id="path3146"
         style="fill:#787c7e;fill-opacity:1" />
    </g>
  </g>
</svg>
