<svg width="67" height="47" viewBox="0 0 67 47" fill="none" xmlns="http://www.w3.org/2000/svg">
<path d="M0.608376 38.2205C4.25183 38.5821 7.82693 38.0704 11.4157 37.5383C14.1978 37.1222 16.8228 36.2694 19.1196 34.7072C20.9037 33.4928 22.4554 31.9442 24.1439 30.5935C27.1926 28.1648 30.3234 25.8453 34.1377 24.747C35.5459 24.3377 37.0019 24.0307 38.4511 23.8874C39.9823 23.7373 41.3289 23.1643 42.6687 22.5025C44.904 21.3905 47.153 20.2512 48.8688 18.4229C50.5777 16.6083 52.1568 14.6503 53.6811 12.6651C55.561 10.2092 57.2972 7.64411 59.1566 5.17453C60.1067 3.91245 61.1389 2.6913 62.5608 1.92041C63.2375 1.55202 63.9348 1.35418 64.6457 1.07448C64.7892 1.0199 64.9328 0.828882 65.0763 0.781128C65.3087 0.699263 65.7804 0.903924 65.9718 1.12223C66.2316 1.4224 66.0948 1.64071 66.2589 1.99545C66.3273 2.13871 67.1681 2.55486 66.9698 2.93689C66.7306 2.90278 66.464 2.77999 66.3888 2.85503C66.3478 2.94372 66.5528 3.11427 66.7101 3.36668C66.4366 3.60546 66.2247 3.33939 66.0675 3.27117C65.1173 2.84821 64.2492 3.01194 63.4768 3.66685C61.9661 4.95622 60.7014 6.46389 59.7308 8.18987C58.2679 10.7822 56.8803 13.4156 55.4242 16.0216C53.9135 18.7368 51.8286 20.988 49.5797 23.1097C48.4313 24.1944 47.235 25.2313 46.155 26.3706C45.1843 27.3939 44.8699 28.772 44.3982 30.0682C43.9539 31.2893 43.3797 32.4627 42.8875 33.6634C42.7713 33.9431 42.6687 34.2569 42.6824 34.5503C42.8328 37.6816 42.9832 40.8197 43.1951 43.951C43.2361 44.5309 43.4685 45.1176 43.7283 45.6497C43.742 45.6838 43.7556 45.7111 43.7693 45.7452C44.0222 45.8203 44.3572 45.9567 44.5622 46.2228C44.904 46.6526 44.2956 46.3319 43.6394 46.3456C43.5642 46.366 43.4822 46.3797 43.3728 46.3797C42.7439 46.407 42.1014 46.407 41.4725 46.3251C41.2879 46.2978 41.035 45.9499 41.0145 45.7316C40.8778 44.0465 40.8026 42.3547 40.6932 40.6696C40.659 40.1443 40.577 39.619 40.3924 39.0937C39.8934 41.3314 38.4442 43.3848 39.039 45.868C39.2919 45.9567 39.6337 46.1204 39.8319 46.4138C40.1327 46.8504 39.5927 46.5229 38.9569 46.4752C38.1982 46.482 37.4941 46.5025 36.8037 46.4411C36.6806 46.4274 36.4824 45.9431 36.5166 45.7043C36.7558 43.8896 37.0498 42.0886 37.3027 40.2808C37.4326 39.3666 37.5146 38.4456 37.624 37.5383C34.5342 37.9545 31.4855 38.357 28.3684 38.7799C28.676 41.1335 28.2932 43.7191 29.5714 46.0659C29.7218 46.1546 29.8654 46.2705 29.9679 46.4206C30.255 46.8436 29.7628 46.5571 29.1613 46.4888C28.5666 46.4957 27.965 46.5161 27.3772 46.4752C26.926 46.4411 26.7551 46.0932 26.7688 45.6429C26.844 43.5144 26.1946 41.5019 25.7503 39.4621C25.7366 39.4007 25.6887 39.353 25.593 39.1824C25.4905 39.7145 25.4085 40.1512 25.3196 40.5809C25.1009 41.6452 24.93 42.7162 24.6429 43.76C24.4241 44.5514 24.4105 45.2882 24.8616 46.1204C25.0257 46.216 25.1829 46.3319 25.2991 46.5025C25.6409 47.0005 24.8821 46.4957 24.1439 46.5639C24.0482 46.5707 23.9798 46.5639 23.932 46.5502C23.5423 46.5502 23.1732 46.5502 22.8041 46.5502C22.2982 46.5434 22.1136 46.2228 22.1683 45.7862C22.2709 44.8925 22.3324 43.9851 22.558 43.1187C22.9818 41.4678 23.1185 39.8032 23.057 37.9545C15.3531 38.8618 7.69705 39.8373 0.0136719 38.5684C0.00683594 38.4729 0.00683594 38.3774 0 38.2819C0.20507 38.241 0.410141 38.2001 0.608376 38.2205Z" fill="#ffffff"/>
</svg>
