<?xml version="1.0" encoding="UTF-8" standalone="no"?>
<!-- Created with Inkscape (http://www.inkscape.org/) -->

<svg
   width="100mm"
   height="100mm"
   viewBox="0 0 100 100"
   version="1.1"
   id="svg5"
   sodipodi:docname="sparkles.rectangle.stack.superfilled.svg"
   inkscape:version="1.1.1 (c3084ef, 2021-09-22)"
   xmlns:inkscape="http://www.inkscape.org/namespaces/inkscape"
   xmlns:sodipodi="http://sodipodi.sourceforge.net/DTD/sodipodi-0.dtd"
   xmlns="http://www.w3.org/2000/svg"
   xmlns:svg="http://www.w3.org/2000/svg">
  <sodipodi:namedview
     id="namedview7"
     pagecolor="#ffffff"
     bordercolor="#666666"
     borderopacity="1.0"
     inkscape:pageshadow="2"
     inkscape:pageopacity="0.0"
     inkscape:pagecheckerboard="0"
     inkscape:document-units="mm"
     showgrid="false"
     width="100mm"
     inkscape:zoom="0.84183515"
     inkscape:cx="225.10345"
     inkscape:cy="239.35803"
     inkscape:window-width="1440"
     inkscape:window-height="737"
     inkscape:window-x="0"
     inkscape:window-y="25"
     inkscape:window-maximized="1"
     inkscape:current-layer="layer1" />
  <defs
     id="defs2" />
  <g
     inkscape:label="Calque 1"
     inkscape:groupmode="layer"
     id="layer1">
    <g
       id="Regular-S-3"
       transform="matrix(1.0108526,0,0,1.0687683,-6.1091838,87.843069)"
       style="fill:#0079d3;fill-opacity:1">
      <path
         d="m 99.8047,-31.6406 q 1.7573,-0.8789 2.6363,-2.0752 0.879,-1.1963 0.879,-2.417 0,-1.2207 -0.879,-2.2949 -0.879,-1.0743 -2.6363,-1.709 l -17.3828,-6.0059 7.4219,-15.1855 q 0.5859,-1.1719 0.5859,-2.4903 0,-1.7578 -1.1719,-2.9296 -1.1719,-1.1719 -2.9297,-1.1719 -0.5371,0 -1.1719,0.1465 -0.6347,0.1464 -1.3183,0.4394 l -15.7715,7.7149 -8.2519,-17.627 q -0.7325,-1.6601 -1.8799,-2.4902 -1.1475,-0.8301 -2.3682,-0.8301 -1.2207,0 -2.3437,0.8301 -1.1231,0.8301 -1.9043,2.4902 l -8.252,17.627 -15.7715,-7.7149 q -0.6347,-0.293 -1.2695,-0.4394 -0.6348,-0.1465 -1.2207,-0.1465 -1.7578,0 -2.9297,1.1719 -1.1719,1.1718 -1.1719,2.9296 0,1.3184 0.586,2.4903 l 7.4218,15.1855 -17.3828,6.0059 q -1.70896,0.5859 -2.61228,1.709 -0.90332,1.123 -0.90332,2.3437 0,1.1719 0.87891,2.3682 0.8789,1.1963 2.63669,2.0752 l 16.6992,8.0078 -9.0332,19.14061 q -0.6836,1.36719 -0.6836,2.68555 0,1.611328 0.9766,2.636718 0.9766,1.025392 2.4902,1.025392 0.586,0 1.2696,-0.21973 0.6836,-0.21972 1.416,-0.659178 L 45.8496,-11.6699 51.6602,6.34766 q 0.5859,1.70898 1.6601,2.56347 1.0742,0.85449 2.2461,0.85449 1.2207,0 2.2705,-0.85449 1.0498,-0.85449 1.6358,-2.56347 L 65.332,-11.6699 86.7188,0.976562 q 0.6835,0.439458 1.3671,0.634768 0.6836,0.19531 1.3184,0.19531 1.4648,0 2.4658,-0.976562 1.001,-0.976562 1.001,-2.587888 0,-1.26953 -0.6836,-2.73438 l -9.082,-19.14061 z"
         id="path2183"
         style="fill:#0079d3;fill-opacity:1" />
    </g>
  </g>
</svg>
