<?xml version="1.0" encoding="UTF-8" standalone="no"?>
<!-- Created with Inkscape (http://www.inkscape.org/) -->

<svg
   width="100mm"
   height="100mm"
   viewBox="0 0 100 100"
   version="1.1"
   id="svg5"
   inkscape:version="1.1.1 (c3084ef, 2021-09-22)"
   sodipodi:docname="sparkles.rectangle.stack.fill.svg"
   xmlns:inkscape="http://www.inkscape.org/namespaces/inkscape"
   xmlns:sodipodi="http://sodipodi.sourceforge.net/DTD/sodipodi-0.dtd"
   xmlns="http://www.w3.org/2000/svg"
   xmlns:svg="http://www.w3.org/2000/svg">
  <sodipodi:namedview
     id="namedview7"
     pagecolor="#ffffff"
     bordercolor="#666666"
     borderopacity="1.0"
     inkscape:pageshadow="2"
     inkscape:pageopacity="0.0"
     inkscape:pagecheckerboard="0"
     inkscape:document-units="mm"
     showgrid="false"
     width="100mm"
     inkscape:zoom="0.84183515"
     inkscape:cx="146.70331"
     inkscape:cy="255.98836"
     inkscape:window-width="1440"
     inkscape:window-height="737"
     inkscape:window-x="0"
     inkscape:window-y="25"
     inkscape:window-maximized="1"
     inkscape:current-layer="layer1" />
  <defs
     id="defs2" />
  <g
     inkscape:label="Calque 1"
     inkscape:groupmode="layer"
     id="layer1">
    <g
       id="Regular-S"
       transform="matrix(0.97399188,0,0,1.0298027,-5.853367,86.475426)"
       style="fill:#787c7e;fill-opacity:1">
      <path
         d="m 103.271,-31.4941 q 1.807,-0.9278 2.735,-2.1485 0.928,-1.2207 0.928,-2.539 0,-1.2696 -0.928,-2.3682 -0.928,-1.0986 -2.735,-1.7822 l -18.0171,-6.2012 7.7149,-15.7715 q 0.6347,-1.3183 0.6347,-2.5879 0,-1.8554 -1.2451,-3.0517 -1.2451,-1.1963 -3.0518,-1.1963 -0.6347,0 -1.2695,0.1465 -0.6348,0.1464 -1.3183,0.4882 l -16.3575,7.959 -8.5449,-18.2617 q -0.7812,-1.709 -1.9775,-2.5879 -1.1963,-0.8789 -2.4659,-0.8789 -1.2695,0 -2.4658,0.8789 -1.1963,0.8789 -1.9775,2.5879 l -8.4961,18.2617 -16.4063,-7.959 q -0.6835,-0.3418 -1.3183,-0.4882 -0.6348,-0.1465 -1.2695,-0.1465 -1.8067,0 -3.0274,1.1963 -1.2207,1.1963 -1.2207,3.0517 0,1.2696 0.5859,2.5879 l 7.7149,15.7715 -18.0176,6.2012 q -1.80663,0.6347 -2.73437,1.7822 -0.92773,1.1475 -0.92773,2.417 0,1.2695 0.92773,2.4902 0.92774,1.2207 2.73437,2.1485 l 17.2852,8.3007 -9.375,19.87309 q -0.6836,1.41601 -0.6836,2.783201 0,1.660159 1.0009,2.709959 1.001,1.04981 2.5635,1.04981 0.6348,0 1.3428,-0.19532 0.708,-0.19531 1.4893,-0.63476 L 47.2656,-10.7422 53.3203,7.95898 q 0.5859,1.75782 1.709,2.63672 1.123,0.8789 2.3437,0.8789 1.2696,0 2.3682,-0.8789 1.0986,-0.8789 1.6846,-2.63672 L 67.4805,-10.7422 89.6484,2.39258 q 0.7813,0.43945 1.4893,0.61035 0.708,0.1709 1.3428,0.1709 1.5136,0 2.5634,-1.00098 1.0499,-1.00097 1.0499,-2.661131 0,-1.318359 -0.7325,-2.832029 l -9.375,-19.87309 z m -5.8589,-4.5411 v 0.1954 l -18.8965,8.1543 q -0.5859,0.2441 -0.9033,0.6591 -0.3174,0.4151 -0.3174,0.9034 0,0.4394 0.293,0.9277 l 9.7656,19.53124 -0.1953,0.19531 -21.6797,-13.86715 q -0.2441,-0.1953 -0.5371,-0.293 -0.293,-0.0977 -0.5371,-0.0977 -0.4883,0 -0.8789,0.3418 -0.3906,0.3418 -0.5371,0.9766 L 57.4707,0.634766 H 57.2754 L 51.8066,-18.4082 q -0.1953,-0.6348 -0.5859,-0.9766 -0.3906,-0.3418 -0.8789,-0.3418 -0.2441,0 -0.5127,0.0977 -0.2686,0.0977 -0.5615,0.293 L 27.5879,-5.46875 27.3926,-5.66406 37.1582,-25.1953 q 0.293,-0.4883 0.293,-0.9277 0,-0.4883 -0.3174,-0.9034 -0.3174,-0.415 -0.9033,-0.6591 L 17.334,-35.8398 v -0.1954 l 19.6289,-5.9082 q 0.6348,-0.1953 0.9766,-0.5859 0.3417,-0.3906 0.3417,-0.9277 0,-0.4883 -0.2929,-0.9766 l -8.8867,-16.6992 0.1464,-0.1465 16.7481,8.9844 q 0.293,0.1465 0.5615,0.2197 0.2686,0.0732 0.5127,0.0732 0.4883,0 0.8545,-0.2685 0.3662,-0.2686 0.6104,-0.8545 l 8.7402,-19.8242 h 0.1953 l 8.7402,19.8242 q 0.2442,0.5859 0.6348,0.8545 0.3906,0.2685 0.8789,0.2685 0.2442,0 0.4883,-0.0732 0.2441,-0.0732 0.5371,-0.2197 l 16.748,-8.9844 0.1465,0.1465 -8.8867,16.6992 q -0.293,0.4883 -0.293,0.9766 0,0.5371 0.3418,0.9277 0.3418,0.3906 0.9766,0.5859 z"
         id="path1669"
         style="fill:#787c7e;fill-opacity:1" />
    </g>
  </g>
</svg>
