<?xml version="1.0" encoding="UTF-8" standalone="no"?>
<!-- Created with Inkscape (http://www.inkscape.org/) -->

<svg
   width="100mm"
   height="100mm"
   viewBox="0 0 100 100"
   version="1.1"
   id="svg5"
   sodipodi:docname="stars.rectangle.stack.superfill.svg"
   inkscape:version="1.1.1 (c3084ef, 2021-09-22)"
   xmlns:inkscape="http://www.inkscape.org/namespaces/inkscape"
   xmlns:sodipodi="http://sodipodi.sourceforge.net/DTD/sodipodi-0.dtd"
   xmlns="http://www.w3.org/2000/svg"
   xmlns:svg="http://www.w3.org/2000/svg">
  <sodipodi:namedview
     id="namedview7"
     pagecolor="#ffffff"
     bordercolor="#666666"
     borderopacity="1.0"
     inkscape:pageshadow="2"
     inkscape:pageopacity="0.0"
     inkscape:pagecheckerboard="0"
     inkscape:document-units="mm"
     showgrid="false"
     width="100mm"
     inkscape:zoom="0.95511691"
     inkscape:cx="111.50467"
     inkscape:cy="212.01593"
     inkscape:window-width="1440"
     inkscape:window-height="737"
     inkscape:window-x="0"
     inkscape:window-y="25"
     inkscape:window-maximized="0"
     inkscape:current-layer="layer1" />
  <defs
     id="defs2" />
  <g
     inkscape:label="Calque 1"
     inkscape:groupmode="layer"
     id="layer1">
    <g
       id="Regular-S-3"
       transform="matrix(1.0108526,0,0,1.0687683,79.064361,212.3033)">
      <path
         d="m 99.8047,-31.6406 q 1.7573,-0.8789 2.6363,-2.0752 0.879,-1.1963 0.879,-2.417 0,-1.2207 -0.879,-2.2949 -0.879,-1.0743 -2.6363,-1.709 l -17.3828,-6.0059 7.4219,-15.1855 q 0.5859,-1.1719 0.5859,-2.4903 0,-1.7578 -1.1719,-2.9296 -1.1719,-1.1719 -2.9297,-1.1719 -0.5371,0 -1.1719,0.1465 -0.6347,0.1464 -1.3183,0.4394 l -15.7715,7.7149 -8.2519,-17.627 q -0.7325,-1.6601 -1.8799,-2.4902 -1.1475,-0.8301 -2.3682,-0.8301 -1.2207,0 -2.3437,0.8301 -1.1231,0.8301 -1.9043,2.4902 l -8.252,17.627 -15.7715,-7.7149 q -0.6347,-0.293 -1.2695,-0.4394 -0.6348,-0.1465 -1.2207,-0.1465 -1.7578,0 -2.9297,1.1719 -1.1719,1.1718 -1.1719,2.9296 0,1.3184 0.586,2.4903 l 7.4218,15.1855 -17.3828,6.0059 q -1.70896,0.5859 -2.61228,1.709 -0.90332,1.123 -0.90332,2.3437 0,1.1719 0.87891,2.3682 0.8789,1.1963 2.63669,2.0752 l 16.6992,8.0078 -9.0332,19.14061 q -0.6836,1.36719 -0.6836,2.68555 0,1.611328 0.9766,2.636718 0.9766,1.025392 2.4902,1.025392 0.586,0 1.2696,-0.21973 0.6836,-0.21972 1.416,-0.659178 L 45.8496,-11.6699 51.6602,6.34766 q 0.5859,1.70898 1.6601,2.56347 1.0742,0.85449 2.2461,0.85449 1.2207,0 2.2705,-0.85449 1.0498,-0.85449 1.6358,-2.56347 L 65.332,-11.6699 86.7188,0.976562 q 0.6835,0.439458 1.3671,0.634768 0.6836,0.19531 1.3184,0.19531 1.4648,0 2.4658,-0.976562 1.001,-0.976562 1.001,-2.587888 0,-1.26953 -0.6836,-2.73438 l -9.082,-19.14061 z"
         id="path2183" />
    </g>
    <g
       id="Regular-S-7"
       transform="matrix(1.0792125,0,0,1.1206804,-2.5729935,89.447895)"
       style="fill:#0079d3;fill-opacity:1">
      <path
         d="m 21.7773,6.88477 h 54.3946 q 5.957,0 8.9599,-2.97852 3.003,-2.978516 3.003,-8.83789 V -43.0176 q 0,-5.9082 -3.003,-8.8623 -3.0029,-2.9541 -8.9599,-2.9541 H 21.7773 q -6.0546,0 -9.0332,2.9541 -2.97848,2.9541 -2.97848,8.8623 v 38.08596 q 0,5.908202 2.97848,8.8623 2.9786,2.95411 9.0332,2.95411 z M 16.8457,-60.791 h 64.3066 q -0.5371,-2.9785 -2.0996,-4.541 -1.5625,-1.5625 -4.8339,-1.5625 H 23.7793 q -3.3203,0 -4.8828,1.5625 -1.5625,1.5625 -2.0508,4.541 z m 8.0078,-11.0352 h 48.2422 q -0.1953,-2.7832 -1.7822,-4.1748 -1.5869,-1.3916 -4.6143,-1.3916 H 31.25 q -3.0273,0 -4.5898,1.3916 -1.5625,1.3916 -1.8067,4.1748 z m 26.0742,63.23245 q -1.416,0 -1.6601,-1.41605 -0.586,-4.0527 -1.3916,-6.6894 -0.8057,-2.6367 -2.2949,-4.2481 -1.4893,-1.6113 -4.126,-2.5146 -2.6367,-0.9033 -6.9824,-1.4404 -1.4649,-0.2442 -1.4649,-1.6114 0,-1.3672 1.4649,-1.6113 4.3457,-0.5859 6.9091,-1.4893 2.5635,-0.9033 4.0039,-2.4902 1.4405,-1.5869 2.2705,-4.2236 0.8301,-2.6367 1.6114,-6.6895 0.3906,-1.416 1.6601,-1.416 1.3184,0 1.5625,1.4648 0.6348,3.9551 1.4405,6.5674 0.8056,2.6123 2.2949,4.2237 1.4892,1.6113 4.1504,2.539 2.6611,0.9278 6.958,1.5137 1.4648,0.2441 1.4648,1.6113 0,1.416 -1.4648,1.6114 -4.2969,0.5859 -6.8848,1.4892 -2.5879,0.9033 -4.0039,2.4902 -1.416,1.587 -2.2705,4.2237 -0.8545,2.6367 -1.6846,6.73826 -0.2929,1.36719 -1.5625,1.36719 z m -15.5273,6.64063 q -0.8789,0 -1.2695,-1.12305 -0.586,-2.83203 -0.9522,-4.07715 -0.3662,-1.24512 -1.5137,-1.68457 -1.1474,-0.43945 -4.1748,-0.92773 -1.1718,-0.19532 -1.1718,-1.26958 0,-1.0253 1.0742,-1.2207 3.0762,-0.5371 4.248,-1.0009 1.1719,-0.4639 1.5381,-1.6846 0.3662,-1.2207 0.9522,-4.0527 0.3906,-1.1719 1.2695,-1.1719 0.9766,0 1.3184,1.1719 0.5859,2.832 0.9521,4.0527 0.3662,1.2207 1.5625,1.6846 1.1963,0.4638 4.2725,1.0009 1.0742,0.1954 1.0742,1.2207 0,1.0254 -1.0742,1.26958 -3.0762,0.48828 -4.2725,0.95214 -1.1963,0.46387 -1.5625,1.70899 -0.3662,1.24511 -0.9521,4.12597 -0.3418,1.0254 -1.3184,1.0254 z"
         id="path4044"
         style="fill:#0079d3;fill-opacity:1" />
    </g>
  </g>
</svg>
