<?xml version="1.0" encoding="UTF-8" standalone="no"?>
<!-- Created with Inkscape (http://www.inkscape.org/) -->

<svg
   width="100mm"
   height="100mm"
   viewBox="0 0 100 100"
   version="1.1"
   id="svg5"
   sodipodi:docname="stars.rectangle.stack.fill.svg"
   inkscape:version="1.1.1 (c3084ef, 2021-09-22)"
   xmlns:inkscape="http://www.inkscape.org/namespaces/inkscape"
   xmlns:sodipodi="http://sodipodi.sourceforge.net/DTD/sodipodi-0.dtd"
   xmlns="http://www.w3.org/2000/svg"
   xmlns:svg="http://www.w3.org/2000/svg">
  <sodipodi:namedview
     id="namedview7"
     pagecolor="#ffffff"
     bordercolor="#666666"
     borderopacity="1.0"
     inkscape:pageshadow="2"
     inkscape:pageopacity="0.0"
     inkscape:pagecheckerboard="0"
     inkscape:document-units="mm"
     showgrid="false"
     width="100mm"
     inkscape:zoom="0.84183515"
     inkscape:cx="241.73379"
     inkscape:cy="127.69721"
     inkscape:window-width="1440"
     inkscape:window-height="737"
     inkscape:window-x="0"
     inkscape:window-y="25"
     inkscape:window-maximized="1"
     inkscape:current-layer="layer1" />
  <defs
     id="defs2" />
  <g
     inkscape:label="Calque 1"
     inkscape:groupmode="layer"
     id="layer1">
    <g
       id="Regular-S"
       transform="matrix(1.0541989,0,0,1.0965422,-2.0503347,88.997882)"
       style="fill:#787c7e;fill-opacity:1">
      <path
         d="m 22.2168,7.76367 h 55.3223 q 6.25,0 9.3505,-3.05176 3.1006,-3.05175 3.1006,-9.2041 V -43.5547 q 0,-6.1523 -3.1006,-9.2041 -3.1005,-3.0517 -9.3505,-3.0517 H 22.2168 q -6.25,0 -9.3506,3.0517 -3.10058,3.0518 -3.10058,9.2041 v 39.06251 q 0,6.15235 3.10058,9.2041 3.1006,3.05176 9.3506,3.05176 z m 0.0977,-7.031248 q -2.6368,0 -4.0772,-1.416016 Q 16.7969,-2.09961 16.7969,-4.88281 V -43.1641 q 0,-2.7832 1.4404,-4.1992 1.4404,-1.416 4.0772,-1.416 h 55.1269 q 2.6367,0 4.0772,1.416 1.4404,1.416 1.4404,4.1992 v 38.28129 q 0,2.7832 -1.4404,4.199216 -1.4405,1.416016 -4.0772,1.416016 z M 17.7734,-61.7188 h 64.3067 q -0.5371,-3.0273 -2.0996,-4.5898 -1.5625,-1.5625 -4.834,-1.5625 H 24.707 q -3.3203,0 -4.8828,1.5625 -1.5625,1.5625 -2.0508,4.5898 z m 8.0078,-11.0839 h 48.2422 q -0.1953,-2.7832 -1.7822,-4.1748 -1.5869,-1.3916 -4.6142,-1.3916 H 32.1777 q -3.0273,0 -4.5898,1.3916 -1.5625,1.3916 -1.8067,4.1748 z M 51.709,-9.13086 q 1.2207,0 1.5137,-1.31834 0.83,-3.9063 1.6357,-6.4697 0.8057,-2.5635 2.1728,-4.1016 1.3672,-1.5381 3.8575,-2.3926 2.4902,-0.8545 6.6406,-1.4404 1.416,-0.1465 1.416,-1.5137 0,-1.3183 -1.416,-1.5625 -4.1504,-0.5859 -6.6895,-1.4892 -2.539,-0.9034 -4.0039,-2.4415 -1.4648,-1.538 -2.2461,-4.0527 -0.7812,-2.5146 -1.3671,-6.3232 -0.1954,-1.416 -1.5137,-1.416 -1.2695,0 -1.5625,1.3671 -0.7813,3.9063 -1.5869,6.4454 -0.8057,2.539 -2.1729,4.0771 -1.3672,1.5381 -3.8574,2.3926 -2.4902,0.8545 -6.6406,1.4404 -1.416,0.2442 -1.416,1.5625 0,1.2695 1.416,1.5137 4.1504,0.5371 6.6894,1.3916 2.5391,0.8545 4.0039,2.417 1.4649,1.5625 2.2217,4.1015 0.7568,2.5391 1.3428,6.4454 0.2441,1.36714 1.5625,1.36714 z m -14.9414,6.39648 q 1.0254,0 1.2207,-0.97656 0.5859,-2.7832 0.9521,-3.97949 0.3662,-1.19629 1.5381,-1.63574 1.1719,-0.43945 4.1016,-0.92773 1.0254,-0.1465 1.0254,-1.2207 0,-1.0254 -1.0254,-1.1719 -2.9297,-0.5371 -4.1016,-0.9765 -1.1719,-0.4395 -1.5381,-1.6114 -0.3662,-1.1718 -0.9521,-3.8574 -0.1953,-1.1719 -1.2207,-1.1719 -0.8789,0 -1.2207,1.1719 -0.586,2.6856 -0.9278,3.8574 -0.3418,1.1719 -1.4892,1.6114 -1.1475,0.4394 -4.0772,0.9765 -1.0254,0.1465 -1.0254,1.1719 0,1.0742 1.1231,1.2207 2.8808,0.48828 4.0039,0.92773 1.123,0.43945 1.4648,1.61133 0.3418,1.17187 0.9278,3.85742 0.3418,1.12304 1.2207,1.12304 z"
         id="path3328"
         style="fill:#787c7e;fill-opacity:1" />
    </g>
  </g>
</svg>
